<?xml version="1.0" encoding="utf-8"?>
<!-- Generator: Adobe Illustrator 25.2.3, SVG Export Plug-In . SVG Version: 6.00 Build 0)  -->
<svg version="1.1" id="Layer_1" xmlns="http://www.w3.org/2000/svg" xmlns:xlink="http://www.w3.org/1999/xlink" x="0px" y="0px"
	 width="150px" height="150px" viewBox="0 0 150 150" style="enable-background:new 0 0 150 150;" xml:space="preserve">
<g id="svg_3">
	<g>
		<path d="M136,14v122H14V14H136 M150,0H0v150h150V0L150,0z"/>
	</g>
	<g>
		<path d="M136,14v122H14V14H136 M150,0H0v150h150V0L150,0z"/>
	</g>
</g>
<g id="svg_3_1_">
	<g>
		<path d="M117.8,31.8v86.4H32.2V31.8H117.8 M131.8,17.8H18.2v114.4h113.7V17.8L131.8,17.8z"/>
	</g>
	<g>
		<path d="M117.8,31.8v86.4H32.2V31.8H117.8 M131.8,17.8H18.2v114.4h113.7V17.8L131.8,17.8z"/>
	</g>
</g>
<g id="svg_3_2_">
	<g>
		<path d="M100.9,48.9v52.2H49.1V48.9H100.9 M114.9,34.9H35.1v80.2h79.7V34.9L114.9,34.9z"/>
	</g>
	<g>
		<path d="M100.9,48.9v52.2H49.1V48.9H100.9 M114.9,34.9H35.1v80.2h79.7V34.9L114.9,34.9z"/>
	</g>
</g>
<g id="svg_3_3_">
	<g>
		<path d="M83.2,66.7v16.6H66.8V66.7H83.2 M97.2,52.7H52.8v44.6h44.3V52.7L97.2,52.7z"/>
	</g>
	<g>
		<path d="M83.2,66.7v16.6H66.8V66.7H83.2 M97.2,52.7H52.8v44.6h44.3V52.7L97.2,52.7z"/>
	</g>
</g>
</svg>
